<?xml version="1.0" standalone="no"?>
        <!DOCTYPE svg PUBLIC "-//W3C//DTD SVG 1.1//EN" 
        "http://www.w3.org/Graphics/SVG/1.1/DTD/svg11.dtd">  <svg xmlns="http://www.w3.org/2000/svg" xmlns:xlink="http://www.w3.org/1999/xlink" width="40" zoomAndPan="magnify" viewBox="0 0 30 30.000001" height="40" preserveAspectRatio="xMidYMid meet" version="1.0"><defs><clipPath id="id1"><path d="M 3 14 L 28.203125 14 L 28.203125 24.054688 L 3 24.054688 Z M 3 14 " clip-rule="nonzero"/></clipPath><clipPath id="id2"><path d="M 3 5.183594 L 28.203125 5.183594 L 28.203125 15 L 3 15 Z M 3 5.183594 " clip-rule="nonzero"/></clipPath><clipPath id="id3"><path d="M 2.074219 5.183594 L 15 5.183594 L 15 24 L 2.074219 24 Z M 2.074219 5.183594 " clip-rule="nonzero"/></clipPath></defs><g clip-path="url(#id1)"><path fill="rgb(84.309387%, 7.839966%, 10.198975%)" d="M 3.082031 23.308594 C 3.589844 23.785156 4.253906 24.054688 4.980469 24.054688 L 25.292969 24.054688 C 26.894531 24.054688 28.195312 22.757812 28.195312 20.789062 L 28.195312 14.621094 L 14.773438 14.621094 Z M 3.082031 23.308594 " fill-opacity="1" fill-rule="nonzero"/></g><g clip-path="url(#id2)"><path fill="rgb(93.328857%, 93.328857%, 93.328857%)" d="M 25.292969 5.183594 L 4.980469 5.183594 C 4.246094 5.183594 3.574219 5.460938 3.0625 5.914062 L 14.773438 14.621094 L 28.195312 14.621094 L 28.195312 8.089844 C 28.195312 6.484375 26.894531 5.183594 25.292969 5.183594 Z M 25.292969 5.183594 " fill-opacity="1" fill-rule="nonzero"/></g><g clip-path="url(#id3)"><path fill="rgb(6.669617%, 27.059937%, 49.409485%)" d="M 3.082031 23.308594 L 14.773438 14.621094 L 3.0625 5.914062 C 2.460938 6.445312 2.078125 7.222656 2.078125 8.089844 L 2.078125 20.789062 C 2.078125 21.863281 2.46875 22.738281 3.082031 23.308594 Z M 3.082031 23.308594 " fill-opacity="1" fill-rule="nonzero"/></g></svg>  